<svg width="1136" height="429" viewBox="0 0 1136 429" fill="none" xmlns="http://www.w3.org/2000/svg">
<circle cx="247.098" cy="214.5" r="54.5" fill="#48C590" fill-opacity="0.7"/>
<circle cx="993.598" cy="214" r="40" fill="#48C590" fill-opacity="0.9"/>
<path d="M225.52 219.219H224.957V215.703H228.848L229.082 214.625H223.973V214.109H235.223V214.625H229.738L229.457 215.703H234.238V218C234.27 218.75 233.879 219.125 233.066 219.125C232.598 219.156 232.254 219.172 232.035 219.172C232.035 219.047 231.988 218.844 231.895 218.562C232.238 218.562 232.566 218.562 232.879 218.562C233.473 218.625 233.738 218.422 233.676 217.953V216.219H231.285V218.984H230.676V216.219H228.473V219.031H227.863V216.219H225.52V219.219ZM224.348 210.172H229.27V209.281H224.957V208.766H234.145V209.281H229.879V210.172H234.848V212.141H234.238V210.688H229.879V213.406H229.27V210.688H224.957V212.141H224.348V210.172ZM230.77 212.797H233.254V213.266H230.77V212.797ZM225.941 211.531H228.426V212H225.941V211.531ZM225.941 212.797H228.426V213.266H225.941V212.797ZM230.77 211.531H233.254V212H230.77V211.531ZM241.316 208.156H241.973V210.594H247.082V211.203H241.973V211.531C242.348 212.562 242.816 213.5 243.379 214.344C244.191 213.75 245.051 213 245.957 212.094L246.473 212.516C246.191 212.766 245.66 213.219 244.879 213.875C244.348 214.344 243.973 214.672 243.754 214.859C244.566 215.891 245.723 216.797 247.223 217.578C247.16 217.609 247.051 217.734 246.895 217.953C246.832 217.984 246.785 218.016 246.754 218.047C244.441 216.891 242.848 215.203 241.973 212.984V217.625C242.035 218.625 241.504 219.125 240.379 219.125C239.879 219.156 239.457 219.172 239.113 219.172C239.113 218.984 239.066 218.75 238.973 218.469C239.223 218.5 239.645 218.516 240.238 218.516C241.02 218.578 241.379 218.219 241.316 217.438V211.203H236.113V210.594H241.316V208.156ZM236.348 217.766L236.02 217.109C237.926 216.203 239.441 215.422 240.566 214.766C240.566 214.828 240.582 214.906 240.613 215C240.645 215.219 240.676 215.375 240.707 215.469C239.02 216.312 237.566 217.078 236.348 217.766ZM239.066 214.438C238.598 213.875 237.988 213.203 237.238 212.422L237.754 212.047C238.41 212.703 239.035 213.375 239.629 214.062L239.066 214.438ZM243.191 209.094L243.613 208.672C244.426 209.234 244.988 209.656 245.301 209.938L244.832 210.406C244.332 209.969 243.785 209.531 243.191 209.094ZM250.41 217.859C252.191 216.703 253.285 215.172 253.691 213.266H251.957V212.562L257.113 209.469H252.238V208.906H258.145V209.562L252.941 212.703H258.848C258.816 213.391 258.77 214.453 258.707 215.891C258.676 216.516 258.66 216.953 258.66 217.203C258.629 218.516 258.035 219.141 256.879 219.078C256.598 219.109 256.191 219.125 255.66 219.125C255.66 219.062 255.645 218.953 255.613 218.797C255.582 218.609 255.551 218.484 255.52 218.422C255.77 218.453 256.191 218.469 256.785 218.469C257.629 218.531 258.035 218.125 258.004 217.25C258.004 217 258.02 216.578 258.051 215.984C258.113 214.734 258.16 213.828 258.191 213.266H256.598C256.129 216.141 255.035 218.203 253.316 219.453C253.066 219.203 252.879 219.031 252.754 218.938C254.41 217.906 255.488 216.016 255.988 213.266H254.301C253.801 215.516 252.676 217.172 250.926 218.234C250.77 218.078 250.598 217.953 250.41 217.859ZM248.207 217.391L247.926 216.781C248.457 216.531 249.02 216.297 249.613 216.078V211.812H248.066V211.203H249.613V208.25H250.223V211.203H251.676V211.812H250.223V215.797C250.41 215.734 250.676 215.609 251.02 215.422C251.238 215.328 251.41 215.25 251.535 215.188C251.535 215.406 251.566 215.609 251.629 215.797C251.035 216.047 250.004 216.531 248.535 217.25C248.379 217.312 248.27 217.359 248.207 217.391ZM261.191 208.672H270.004V212H261.191V208.672ZM261.52 214.484H269.77V216.594H266.066V218.047C266.098 218.797 265.707 219.188 264.895 219.219C264.676 219.219 264.301 219.219 263.77 219.219C263.77 219 263.723 218.781 263.629 218.562C264.004 218.594 264.363 218.609 264.707 218.609C265.238 218.641 265.488 218.438 265.457 218V216.594H261.52V214.484ZM262.129 215V216.125H269.16V215H262.129ZM261.801 210.547V211.531H269.395V210.547H261.801ZM261.801 209.188V210.078H269.395V209.188H261.801ZM265.176 212.234L265.738 212.047C265.77 212.141 265.832 212.312 265.926 212.562C265.988 212.781 266.035 212.953 266.066 213.078H271.223V213.594H259.973V213.078H265.457C265.363 212.797 265.27 212.516 265.176 212.234ZM263.629 217.156L263.957 217.672C263.051 218.078 261.848 218.594 260.348 219.219C260.254 219.031 260.129 218.844 259.973 218.656C261.285 218.219 262.504 217.719 263.629 217.156ZM267.238 217.719L267.566 217.203C267.723 217.266 267.941 217.344 268.223 217.438C269.441 217.812 270.426 218.172 271.176 218.516L270.895 219.031C269.895 218.594 268.676 218.156 267.238 217.719Z" fill="white"/>
<path d="M974.004 210.734V209.609H976.957C976.895 209.359 976.77 209 976.582 208.531C976.551 208.438 976.52 208.359 976.488 208.297L977.848 208.156C978.004 208.531 978.176 209.016 978.363 209.609H981.176V210.734H977.473C976.723 211.734 976.16 212.438 975.785 212.844C976.004 212.812 976.363 212.797 976.863 212.797C977.301 212.766 977.645 212.75 977.895 212.75C978.207 212.312 978.504 211.859 978.785 211.391L979.816 211.906C978.441 214.25 976.582 215.953 974.238 217.016C974.176 216.891 974.051 216.703 973.863 216.453C973.707 216.203 973.582 216.031 973.488 215.938C974.926 215.344 976.082 214.625 976.957 213.781C976.551 213.781 976.035 213.812 975.41 213.875C975.348 213.875 975.254 213.891 975.129 213.922C974.816 213.922 974.598 213.953 974.473 214.016L974.004 213.031C974.254 212.875 974.504 212.688 974.754 212.469C975.191 211.938 975.629 211.359 976.066 210.734H974.004ZM970.066 211.484V210.359H971.426V208.156H972.598V210.359H973.77V211.484H972.598V212.703C973.191 213.141 973.707 213.531 974.145 213.875L973.582 214.906L972.598 214.016V219.359H971.426V213.922C971.113 214.891 970.691 215.781 970.16 216.594C970.129 216.406 970.082 216.125 970.02 215.75C969.926 215.344 969.863 215.062 969.832 214.906C970.52 213.906 971.035 212.766 971.379 211.484H970.066ZM980.426 219.219C979.645 218.5 978.879 217.875 978.129 217.344C977.098 218.125 975.879 218.812 974.473 219.406C974.379 219.25 974.191 218.984 973.91 218.609C973.816 218.484 973.754 218.391 973.723 218.328C976.504 217.359 978.598 215.734 980.004 213.453L981.035 214.062C980.379 215.031 979.707 215.859 979.02 216.547C979.238 216.703 979.551 216.953 979.957 217.297C980.551 217.734 980.988 218.047 981.27 218.234L980.426 219.219ZM986.801 218.938C985.488 218.969 984.848 218.359 984.879 217.109V210.641H986.238V216.828C986.207 217.516 986.535 217.844 987.223 217.812H988.676C989.332 217.844 989.723 217.531 989.848 216.875C989.848 216.781 989.863 216.609 989.895 216.359C989.957 215.922 990.004 215.578 990.035 215.328C990.191 215.359 990.41 215.438 990.691 215.562C991.004 215.656 991.223 215.734 991.348 215.797C991.254 216.484 991.145 217.109 991.02 217.672C990.863 218.547 990.16 218.969 988.91 218.938H986.801ZM992.098 215.844C991.535 214.688 990.879 213.406 990.129 212L991.254 211.391C991.816 212.391 992.504 213.656 993.316 215.188L992.098 215.844ZM983.051 216.594C982.895 216.5 982.613 216.391 982.207 216.266C982.02 216.203 981.895 216.156 981.832 216.125C982.395 214.438 982.816 212.953 983.098 211.672L984.363 212.047C983.957 213.609 983.52 215.125 983.051 216.594ZM988.629 211.719C988.066 211.062 987.191 210.156 986.004 209L986.895 208.109C987.957 209.047 988.848 209.906 989.566 210.688L988.629 211.719ZM1000.91 219.125C1000.85 218.562 1000.75 218.156 1000.63 217.906C1000.94 217.938 1001.47 217.953 1002.22 217.953C1002.97 217.984 1003.35 217.625 1003.35 216.875C1003.35 216.594 1003.35 216.5 1003.35 216.594C1003.44 214.312 1003.49 212.656 1003.49 211.625H1001.24L1001.19 212.141C1001.16 215.422 1000.16 217.828 998.191 219.359C998.129 219.297 997.988 219.203 997.77 219.078C997.457 218.828 997.223 218.656 997.066 218.562C998.191 217.656 998.926 216.797 999.27 215.984C999.613 215.203 999.832 213.906 999.926 212.094V211.625H998.613V210.406H1000.02C1000.02 209.438 1000.04 208.688 1000.07 208.156H1001.33C1001.33 208.438 1001.32 208.828 1001.29 209.328C1001.29 209.828 1001.29 210.188 1001.29 210.406H1004.8C1004.74 213.094 1004.66 215.344 1004.57 217.156C1004.57 218.406 1003.96 219.047 1002.74 219.078C1002.58 219.078 1002.3 219.078 1001.89 219.078C1001.43 219.109 1001.1 219.125 1000.91 219.125ZM994.02 210.594V209.375H998.379V210.594H996.879V215.703L998.473 215.375C998.473 215.969 998.488 216.406 998.52 216.688C996.832 217.031 995.363 217.375 994.113 217.719L993.879 216.312L995.66 215.984V210.594H994.02ZM1006.49 219.266V212.562H1011.32V217.953C1011.35 218.734 1010.96 219.141 1010.14 219.172C1010.05 219.172 1009.86 219.172 1009.58 219.172C1009.24 219.203 1008.99 219.219 1008.83 219.219C1008.8 219.062 1008.77 218.844 1008.74 218.562C1008.68 218.375 1008.64 218.234 1008.64 218.141C1008.83 218.172 1009.18 218.188 1009.68 218.188C1010.05 218.188 1010.24 218.062 1010.24 217.812V217.109H1007.57V219.266H1006.49ZM1013.85 219.125C1012.85 219.156 1012.35 218.672 1012.35 217.672V213.875H1013.52V215.422C1014.64 214.984 1015.61 214.531 1016.43 214.062L1017.08 215C1016.24 215.438 1015.05 215.969 1013.52 216.594V217.438C1013.52 217.875 1013.75 218.078 1014.22 218.047H1015.21C1015.68 218.078 1015.93 217.922 1015.96 217.578C1016.02 217.234 1016.07 216.812 1016.1 216.312C1016.22 216.344 1016.39 216.406 1016.61 216.5C1016.86 216.594 1017.05 216.656 1017.18 216.688C1017.14 217.031 1017.08 217.453 1016.99 217.953C1016.99 217.984 1016.99 218 1016.99 218C1016.8 218.75 1016.29 219.125 1015.44 219.125H1013.85ZM1013.85 213.359C1012.85 213.359 1012.35 212.859 1012.35 211.859V208.203H1013.52V209.938C1014.36 209.625 1015.3 209.188 1016.33 208.625L1016.99 209.516C1015.86 210.078 1014.71 210.594 1013.52 211.062V211.625C1013.49 212.094 1013.72 212.312 1014.22 212.281H1015.16C1015.63 212.312 1015.89 212.125 1015.96 211.719C1016.02 211.312 1016.07 210.922 1016.1 210.547C1016.16 210.578 1016.27 210.609 1016.43 210.641C1016.61 210.703 1016.86 210.797 1017.18 210.922C1017.14 211.328 1017.07 211.766 1016.94 212.234C1016.82 212.984 1016.3 213.359 1015.39 213.359H1013.85ZM1011.27 212.234C1011.14 212.016 1011 211.812 1010.85 211.625C1009.94 211.656 1008.75 211.703 1007.29 211.766C1007.16 211.766 1006.99 211.781 1006.77 211.812C1006.55 211.844 1006.38 211.875 1006.25 211.906L1005.83 210.875C1006.14 210.719 1006.41 210.5 1006.63 210.219C1007.25 209.594 1007.82 208.859 1008.32 208.016L1009.58 208.438C1009.49 208.531 1009.35 208.688 1009.16 208.906C1008.44 209.75 1007.88 210.375 1007.47 210.781C1007.75 210.75 1008.19 210.734 1008.79 210.734C1009.38 210.703 1009.82 210.688 1010.1 210.688L1009.3 209.656L1010.14 209.141C1010.74 209.766 1011.43 210.578 1012.21 211.578L1011.27 212.234ZM1007.57 213.5V214.438H1010.24V213.5H1007.57ZM1007.57 215.281V216.219H1010.24V215.281H1007.57Z" fill="white"/>
<path d="M937.332 156.078C937.051 155.797 936.754 155.516 936.441 155.234C935.691 155.234 934.566 155.266 933.066 155.328V157.812C933.098 158.656 932.645 159.094 931.707 159.125C931.457 159.156 931.004 159.172 930.348 159.172C930.348 159.109 930.332 159.031 930.301 158.938C930.27 158.688 930.238 158.531 930.207 158.469C930.363 158.5 930.816 158.516 931.566 158.516C932.16 158.547 932.441 158.281 932.41 157.719V155.328C930.816 155.391 929.691 155.438 929.035 155.469C928.816 155.469 928.551 155.484 928.238 155.516C928.145 155.547 928.066 155.562 928.004 155.562L927.723 154.906C927.754 154.906 927.832 154.875 927.957 154.812C928.332 154.719 928.645 154.609 928.895 154.484C930.301 153.828 931.551 153.188 932.645 152.562C931.582 152.562 930.395 152.609 929.082 152.703C928.77 152.703 928.52 152.719 928.332 152.75L928.051 152.141C928.395 152.047 928.691 151.922 928.941 151.766C929.879 151.297 930.988 150.594 932.27 149.656C931.363 149.719 930.051 149.781 928.332 149.844C928.082 149.844 927.91 149.844 927.816 149.844C927.816 149.781 927.801 149.672 927.77 149.516C927.738 149.391 927.707 149.297 927.676 149.234C930.926 149.141 934.145 148.953 937.332 148.672L937.473 149.281C936.41 149.375 934.738 149.484 932.457 149.609L932.926 149.984C931.895 150.672 930.723 151.375 929.41 152.094C930.16 152.094 931.535 152.062 933.535 152C934.379 151.531 935.145 151.031 935.832 150.5L936.395 150.969C934.301 152.312 931.941 153.609 929.316 154.859C930.879 154.828 933.066 154.781 935.879 154.719C935.691 154.562 935.41 154.312 935.035 153.969C934.723 153.688 934.488 153.484 934.332 153.359L934.801 152.984C935.801 153.828 936.801 154.703 937.801 155.609L937.332 156.078ZM934.52 156.594L934.941 156.172C936.098 156.953 937.098 157.625 937.941 158.188L937.52 158.703C937.395 158.641 937.238 158.531 937.051 158.375C935.895 157.594 935.051 157 934.52 156.594ZM929.879 156.172L930.395 156.594C929.426 157.438 928.441 158.172 927.441 158.797C927.254 158.547 927.098 158.375 926.973 158.281C927.879 157.781 928.848 157.078 929.879 156.172ZM942.77 149.797H946.285C946.191 149.422 945.988 148.922 945.676 148.297L946.285 148.109C946.441 148.422 946.66 148.906 946.941 149.562L946.379 149.797H950.082V150.359H945.582L946.191 150.641C945.504 151.516 944.738 152.422 943.895 153.359C944.113 153.359 944.457 153.344 944.926 153.312C946.582 153.281 947.723 153.234 948.348 153.172C948.16 152.984 947.895 152.656 947.551 152.188C947.457 152.062 947.379 151.969 947.316 151.906L947.832 151.578C948.082 151.891 948.473 152.375 949.004 153.031C949.473 153.594 949.785 153.984 949.941 154.203L949.426 154.625C949.363 154.531 949.254 154.375 949.098 154.156C948.941 153.969 948.816 153.828 948.723 153.734C948.598 153.734 948.41 153.734 948.16 153.734C947.879 153.766 947.66 153.781 947.504 153.781V157.672C947.473 158.234 947.723 158.5 948.254 158.469H948.535C949.16 158.5 949.488 158.266 949.52 157.766C949.551 157.641 949.582 157.359 949.613 156.922C949.645 156.766 949.66 156.641 949.66 156.547C949.879 156.641 950.082 156.703 950.27 156.734C950.238 157.109 950.191 157.531 950.129 158C950.035 158.719 949.504 159.062 948.535 159.031H948.16C947.254 159.062 946.816 158.656 946.848 157.812V153.781C946.691 153.781 946.441 153.797 946.098 153.828C945.785 153.828 945.551 153.844 945.395 153.875C945.395 155.469 945.191 156.609 944.785 157.297C944.41 158.016 943.629 158.719 942.441 159.406C942.348 159.25 942.207 159.078 942.02 158.891C943.207 158.266 943.941 157.641 944.223 157.016C944.598 156.422 944.77 155.375 944.738 153.875C944.582 153.906 944.457 153.922 944.363 153.922C943.926 153.922 943.52 153.969 943.145 154.062L942.816 153.406C943.16 153.25 943.395 153.078 943.52 152.891C944.301 152.078 944.973 151.234 945.535 150.359H942.77V149.797ZM940.098 155.188C940.41 155.156 940.879 155.109 941.504 155.047C941.973 155.016 942.348 154.984 942.629 154.953C942.566 155.078 942.535 155.266 942.535 155.516C942.254 155.547 941.863 155.578 941.363 155.609C940.363 155.703 939.691 155.781 939.348 155.844L939.113 155.281C939.363 155.125 939.707 154.781 940.145 154.25C940.207 154.156 940.301 154.016 940.426 153.828C940.582 153.609 940.863 153.219 941.27 152.656C940.645 152.656 939.926 152.688 939.113 152.75L938.926 152.141C939.238 151.859 939.488 151.562 939.676 151.25C940.457 150.062 941.051 149.031 941.457 148.156L942.16 148.391C941.285 149.859 940.473 151.109 939.723 152.141C939.879 152.141 940.145 152.141 940.52 152.141C941.02 152.109 941.379 152.094 941.598 152.094C941.723 151.906 941.879 151.641 942.066 151.297C942.191 151.109 942.285 150.969 942.348 150.875L942.957 151.109C941.863 152.797 940.91 154.156 940.098 155.188ZM939.066 158.234L938.879 157.719C940.348 157.5 941.645 157.266 942.77 157.016C942.77 157.203 942.77 157.406 942.77 157.625C942.613 157.656 942.348 157.703 941.973 157.766C940.723 157.922 939.754 158.078 939.066 158.234ZM951.066 158.797C952.441 158.328 953.348 157.875 953.785 157.438C954.223 156.969 954.457 156.172 954.488 155.047H951.254V154.484H961.988V155.047H958.145V157.531C958.082 158.156 958.426 158.438 959.176 158.375H960.348C961.004 158.406 961.363 158.203 961.426 157.766C961.488 157.391 961.551 156.953 961.613 156.453C961.738 156.516 961.941 156.594 962.223 156.688C962.223 157.094 962.16 157.516 962.035 157.953C961.973 158.672 961.41 159.016 960.348 158.984H959.129C958.004 159.016 957.457 158.578 957.488 157.672V155.047H955.145C955.301 157.141 954.066 158.578 951.441 159.359C951.41 159.297 951.316 159.156 951.16 158.938C951.129 158.875 951.098 158.828 951.066 158.797ZM955.988 148.297L956.598 148.109C956.816 148.578 957.02 149.031 957.207 149.469L956.738 149.609H961.66V151.531H961.004V150.219H952.191V151.531H951.535V149.609H956.551C956.52 149.547 956.473 149.422 956.41 149.234C956.223 148.797 956.082 148.484 955.988 148.297ZM952.66 152.047H960.629V152.609H952.66V152.047ZM969.395 148.156H970.004C970.004 148.438 970.02 148.828 970.051 149.328C970.051 149.859 970.066 150.25 970.098 150.5H974.176V151.109H970.145C970.27 153.203 970.488 154.797 970.801 155.891C971.488 154.984 972.145 153.812 972.77 152.375L973.379 152.656C972.598 154.375 971.816 155.688 971.035 156.594C971.504 157.969 972.035 158.656 972.629 158.656C972.973 158.656 973.223 158.422 973.379 157.953C973.535 157.359 973.629 156.859 973.66 156.453C973.691 156.484 973.754 156.516 973.848 156.547C973.941 156.578 974.082 156.625 974.27 156.688C974.176 157.281 974.066 157.766 973.941 158.141C973.691 158.922 973.254 159.297 972.629 159.266C971.816 159.297 971.129 158.594 970.566 157.156C970.066 157.719 969.316 158.375 968.316 159.125C968.16 158.969 968.004 158.797 967.848 158.609C968.816 157.984 969.645 157.266 970.332 156.453C969.895 155.266 969.613 153.484 969.488 151.109H964.801V153.078H968.129C968.129 153.984 968.082 155.062 967.988 156.312C967.988 157.438 967.473 157.984 966.441 157.953C966.223 157.984 965.879 158 965.41 158C965.379 157.781 965.332 157.547 965.27 157.297C965.645 157.328 966.004 157.344 966.348 157.344C967.035 157.375 967.379 157.047 967.379 156.359C967.379 156.234 967.395 156.062 967.426 155.844C967.457 154.969 967.473 154.25 967.473 153.688H964.801C964.77 155.156 964.66 156.25 964.473 156.969C964.316 157.656 963.957 158.453 963.395 159.359C963.363 159.328 963.285 159.266 963.16 159.172C963.035 159.047 962.941 158.969 962.879 158.938C963.441 158.094 963.785 157.312 963.91 156.594C964.066 155.938 964.145 154.75 964.145 153.031V150.5H969.441C969.441 150.281 969.441 149.922 969.441 149.422C969.41 148.859 969.395 148.438 969.395 148.156ZM971.035 148.906L971.41 148.484C972.16 148.953 972.754 149.344 973.191 149.656L972.77 150.125C972.707 150.062 972.598 149.984 972.441 149.891C971.848 149.453 971.379 149.125 971.035 148.906ZM980.926 154.109H975.348V153.453H980.926V154.109ZM987.91 154.859L990.441 153.406H984.629V152.797H991.238V153.547L988.566 155.141V155.609H993.629V156.219H988.566V157.953C988.598 158.859 988.145 159.312 987.207 159.312C986.738 159.312 986.223 159.312 985.66 159.312C985.66 159.25 985.645 159.172 985.613 159.078C985.582 158.859 985.551 158.688 985.52 158.562C985.988 158.594 986.488 158.609 987.02 158.609C987.676 158.672 987.973 158.406 987.91 157.812V156.219H982.379V155.609H987.91V154.859ZM982.801 150.734H993.254V152.938H992.598V151.344H983.457V152.938H982.801V150.734ZM990.629 150.594L990.066 150.172C990.66 149.578 991.191 148.969 991.66 148.344L992.223 148.766C992.066 148.953 991.816 149.234 991.473 149.609C991.098 150.047 990.816 150.375 990.629 150.594ZM986.926 148.438L987.488 148.156C987.926 148.719 988.348 149.328 988.754 149.984L988.145 150.312C987.738 149.625 987.332 149 986.926 148.438ZM983.738 148.766L984.254 148.438C984.816 149.062 985.27 149.609 985.613 150.078L985.051 150.5C984.738 150.031 984.301 149.453 983.738 148.766ZM995.082 149.188H1004.6C1004.6 149.438 1004.6 149.812 1004.6 150.312C1004.54 153.062 1004.47 155.109 1004.41 156.453C1004.41 158.203 1003.55 159.047 1001.83 158.984C1001.33 159.016 1000.64 159.031 999.77 159.031C999.738 158.75 999.676 158.484 999.582 158.234C1000.11 158.266 1000.83 158.281 1001.74 158.281C1003.14 158.375 1003.8 157.719 1003.71 156.312C1003.83 153.812 1003.89 151.641 1003.89 149.797H995.082V149.188ZM995.129 157.297L994.848 156.547C997.848 155.609 1000.44 154.75 1002.63 153.969C1002.63 154.25 1002.66 154.516 1002.72 154.766C999.785 155.703 997.254 156.547 995.129 157.297ZM996.301 151.672L996.676 151.109C998.363 151.859 999.629 152.469 1000.47 152.938L1000.1 153.547C998.691 152.766 997.426 152.141 996.301 151.672ZM1006 158.562L1008.96 148.906H1009.57L1006.57 158.562H1006ZM1013.97 149.656H1016.08C1016.14 149.469 1016.24 149.203 1016.36 148.859C1016.46 148.516 1016.54 148.266 1016.6 148.109L1017.21 148.25C1017.18 148.344 1017.13 148.484 1017.07 148.672C1017.04 148.797 1016.93 149.125 1016.74 149.656H1020.91V150.172H1016.55C1016.49 150.359 1016.39 150.625 1016.27 150.969C1016.11 151.344 1016 151.625 1015.94 151.812H1018.19V154.391H1020.82V154.906H1018.19V157.953C1018.22 158.734 1017.83 159.141 1017.02 159.172C1016.55 159.172 1016.16 159.172 1015.85 159.172C1015.85 159.109 1015.82 158.969 1015.75 158.75C1015.72 158.656 1015.71 158.594 1015.71 158.562C1016.18 158.562 1016.54 158.562 1016.79 158.562C1017.35 158.625 1017.61 158.375 1017.58 157.812V154.906H1014.3V154.297C1014.46 153.984 1014.69 153.422 1015 152.609C1015.04 152.484 1015.07 152.391 1015.1 152.328H1014.07V151.812H1015.33C1015.52 151.281 1015.71 150.734 1015.89 150.172H1013.97V149.656ZM1010.93 155.234C1010.96 155.234 1011 155.234 1011.07 155.234C1011.75 155.141 1012.58 155.016 1013.55 154.859C1013.55 154.922 1013.54 155.031 1013.5 155.188C1013.5 155.312 1013.49 155.422 1013.46 155.516C1012.11 155.641 1011.04 155.797 1010.22 155.984L1009.94 155.375C1010.16 155.25 1010.33 155.094 1010.46 154.906C1010.77 154.562 1011.3 153.828 1012.05 152.703C1011.24 152.703 1010.55 152.734 1009.99 152.797L1009.8 152.234C1010.02 152.109 1010.18 151.953 1010.27 151.766C1010.8 150.859 1011.44 149.641 1012.19 148.109L1012.8 148.344C1011.99 149.906 1011.27 151.188 1010.64 152.188C1010.89 152.188 1011.22 152.172 1011.63 152.141C1011.97 152.141 1012.22 152.141 1012.38 152.141C1012.72 151.609 1013 151.141 1013.22 150.734L1013.83 151.016C1012.68 152.828 1011.71 154.234 1010.93 155.234ZM1014.91 154.391H1017.58V152.328H1015.75C1015.47 153.047 1015.19 153.734 1014.91 154.391ZM1009.94 158.281L1009.8 157.719C1010.52 157.625 1011.6 157.438 1013.04 157.156C1013.32 157.125 1013.52 157.094 1013.64 157.062C1013.64 157.219 1013.64 157.438 1013.64 157.719C1012.43 157.906 1011.19 158.094 1009.94 158.281ZM1015.66 155.844L1016.18 156.125C1015.55 157.094 1014.91 157.938 1014.25 158.656C1014.1 158.5 1013.93 158.359 1013.74 158.234C1014.33 157.672 1014.97 156.875 1015.66 155.844ZM1019.13 156.172L1019.64 155.844C1019.83 156.125 1020.16 156.594 1020.63 157.25C1020.94 157.688 1021.16 157.984 1021.29 158.141L1020.72 158.516C1020.38 158.016 1019.85 157.234 1019.13 156.172ZM1022.6 149.188H1032.11C1032.11 149.438 1032.11 149.812 1032.11 150.312C1032.05 153.062 1031.99 155.109 1031.93 156.453C1031.93 158.203 1031.07 159.047 1029.35 158.984C1028.85 159.016 1028.16 159.031 1027.29 159.031C1027.25 158.75 1027.19 158.484 1027.1 158.234C1027.63 158.266 1028.35 158.281 1029.25 158.281C1030.66 158.375 1031.32 157.719 1031.22 156.312C1031.35 153.812 1031.41 151.641 1031.41 149.797H1022.6V149.188ZM1022.64 157.297L1022.36 156.547C1025.36 155.609 1027.96 154.75 1030.14 153.969C1030.14 154.25 1030.18 154.516 1030.24 154.766C1027.3 155.703 1024.77 156.547 1022.64 157.297ZM1023.82 151.672L1024.19 151.109C1025.88 151.859 1027.14 152.469 1027.99 152.938L1027.61 153.547C1026.21 152.766 1024.94 152.141 1023.82 151.672ZM1033.52 158.562L1036.47 148.906H1037.08L1034.08 158.562H1033.52ZM1040.32 148.812H1044.54V155.984H1043.97V149.422H1040.93V155.984H1040.32V148.812ZM1042.14 150.688H1042.71V153.078C1042.71 154.766 1042.57 155.984 1042.29 156.734L1042.61 156.406C1042.86 156.594 1043.3 156.953 1043.93 157.484C1044.49 157.922 1044.88 158.234 1045.1 158.422L1044.63 158.891C1044.22 158.516 1043.47 157.875 1042.38 156.969C1042.32 156.906 1042.27 156.859 1042.24 156.828C1041.93 157.641 1041.13 158.484 1039.85 159.359C1039.72 159.172 1039.58 159 1039.43 158.844C1040.61 158.125 1041.35 157.406 1041.63 156.688C1042 156.031 1042.18 154.828 1042.14 153.078V150.688ZM1047.63 148.203H1048.19V157.859C1048.22 158.703 1047.85 159.141 1047.07 159.172C1046.63 159.203 1046.22 159.219 1045.85 159.219C1045.85 159.156 1045.83 159.078 1045.8 158.984C1045.77 158.797 1045.74 158.656 1045.71 158.562C1045.8 158.562 1045.96 158.562 1046.18 158.562C1046.43 158.594 1046.61 158.609 1046.74 158.609C1047.36 158.641 1047.66 158.344 1047.63 157.719V148.203ZM1046.32 156.688H1045.75V149.141H1046.32V156.688ZM1037.64 158.891C1038.27 157.203 1038.69 155.859 1038.91 154.859C1039.04 154.922 1039.19 154.984 1039.38 155.047C1039.47 155.078 1039.54 155.109 1039.57 155.141C1039.29 155.953 1038.89 157.172 1038.39 158.797C1038.33 158.984 1038.29 159.125 1038.25 159.219L1037.64 158.891ZM1039.33 150.359C1039.02 150.047 1038.63 149.688 1038.16 149.281C1037.97 149.125 1037.82 149 1037.69 148.906L1038.11 148.531C1038.64 148.875 1039.21 149.328 1039.8 149.891L1039.33 150.359ZM1038.96 153.312C1038.68 153.031 1038.14 152.578 1037.36 151.953L1037.79 151.578C1038.29 151.891 1038.85 152.312 1039.47 152.844L1038.96 153.312ZM1052.41 154.344H1056.25V149.562H1052.93V148.953H1060.1V149.562H1056.91V154.344H1060.75V154.906H1056.91V159.359H1056.25V154.906H1052.41V154.344ZM1051.43 152.234V157.812L1053.21 156.547C1053.21 156.766 1053.25 156.984 1053.35 157.203C1052.57 157.703 1051.93 158.125 1051.43 158.469C1051.36 158.531 1051.27 158.609 1051.14 158.703C1051.05 158.828 1050.97 158.906 1050.91 158.938L1050.44 158.375C1050.69 158.125 1050.82 157.781 1050.82 157.344V152.797H1049.36V152.234H1051.43ZM1058.64 153.312L1058.08 152.938C1058.64 152.219 1059.14 151.453 1059.58 150.641L1060.19 150.969C1059.97 151.312 1059.66 151.781 1059.25 152.375C1058.97 152.781 1058.77 153.094 1058.64 153.312ZM1053.07 150.969L1053.58 150.641C1054.18 151.547 1054.64 152.297 1054.99 152.891L1054.43 153.266C1054.18 152.828 1053.83 152.234 1053.39 151.484C1053.24 151.266 1053.13 151.094 1053.07 150.969ZM1051.61 150.734C1051.36 150.422 1050.93 149.938 1050.3 149.281C1050.11 149.094 1049.99 148.953 1049.93 148.859L1050.39 148.484C1051.24 149.328 1051.82 149.938 1052.13 150.312L1051.61 150.734Z" fill="white"/>
<path d="M931.191 319.203H936.676V319.719H934.191V320.844H937.285V325.062H930.488V320.844H933.582V319.719H931.191V319.203ZM933.348 316.25L933.957 316.109C933.988 316.234 934.051 316.469 934.145 316.812C934.238 317.125 934.301 317.359 934.332 317.516H937.848V319.203H937.191V318.078H930.582V319.203H929.926V317.516H933.676C933.645 317.391 933.598 317.172 933.535 316.859C933.441 316.578 933.379 316.375 933.348 316.25ZM934.191 323.188V324.5H936.676V323.188H934.191ZM931.098 323.188V324.5H933.582V323.188H931.098ZM936.676 321.406H934.191V322.672H936.676V321.406ZM931.098 321.406V322.672H933.582V321.406H931.098ZM927.16 327.031C927.754 325.344 928.191 323.906 928.473 322.719C928.535 322.75 928.645 322.797 928.801 322.859C928.926 322.922 929.035 322.969 929.129 323C929.066 323.219 928.941 323.625 928.754 324.219C928.285 325.719 927.973 326.734 927.816 327.266L927.16 327.031ZM932.691 325.484L933.066 326C932.879 326.062 932.582 326.188 932.176 326.375C931.082 326.875 930.301 327.219 929.832 327.406C929.707 327.25 929.582 327.062 929.457 326.844C930.363 326.5 931.441 326.047 932.691 325.484ZM934.613 326L934.941 325.484C936.316 326.016 937.379 326.438 938.129 326.75L937.754 327.312C936.566 326.75 935.52 326.312 934.613 326ZM928.613 321.359C928.176 320.922 927.645 320.422 927.02 319.859L927.441 319.438C927.629 319.594 927.941 319.859 928.379 320.234C928.691 320.516 928.941 320.734 929.129 320.891L928.613 321.359ZM929.035 318.312C928.785 318.062 928.395 317.688 927.863 317.188C927.707 317.031 927.582 316.922 927.488 316.859L927.957 316.438C928.426 316.844 928.957 317.328 929.551 317.891L929.035 318.312ZM949.848 324.078C948.035 323.391 946.754 322.469 946.004 321.312H943.098C942.223 322.344 940.988 323.297 939.395 324.172C939.238 324.016 939.098 323.844 938.973 323.656C940.379 322.938 941.473 322.156 942.254 321.312H939.02V320.75H942.723C943.004 320.375 943.238 320 943.426 319.625H939.91V319.062H943.66C943.816 318.719 943.941 318.344 944.035 317.938H939.488V317.422H944.129C944.191 317.078 944.254 316.656 944.316 316.156H944.973C944.941 316.312 944.91 316.547 944.879 316.859C944.816 317.109 944.785 317.297 944.785 317.422H949.707V317.938H944.645C944.551 318.344 944.441 318.719 944.316 319.062H949.285V319.625H944.129C943.973 320 943.754 320.375 943.473 320.75H950.176V321.312H946.707C947.488 322.281 948.66 323 950.223 323.469C950.035 323.75 949.91 323.953 949.848 324.078ZM940.332 324.219H944.223C944.285 323.844 944.316 323.453 944.316 323.047H942.02V322.531H946.988V323.047H944.926C944.957 323.453 944.926 323.844 944.832 324.219H948.863V324.734H944.738C944.738 324.766 944.723 324.812 944.691 324.875C944.691 324.969 944.676 325.031 944.645 325.062C944.801 325.125 945.051 325.219 945.395 325.344C947.426 326.094 948.707 326.594 949.238 326.844L948.863 327.359C948.738 327.297 948.52 327.203 948.207 327.078C946.395 326.328 945.129 325.828 944.41 325.578C943.973 326.391 942.551 327.016 940.145 327.453C940.113 327.391 940.035 327.234 939.91 326.984C939.848 326.922 939.816 326.875 939.816 326.844C942.566 326.406 944.004 325.703 944.129 324.734H940.332V324.219ZM951.066 325.953H956.27V317.891H951.723V317.234H961.473V317.891H956.926V325.953H962.129V326.516H951.066V325.953ZM962.926 324.266H964.66V316.719H972.535V324.266H974.27V324.828H962.926V324.266ZM965.27 319.156V320.516H971.926V319.156H965.27ZM965.27 322.906V324.266H971.926V322.906H965.27ZM965.27 321.031V322.391H971.926V321.031H965.27ZM965.27 317.281V318.641H971.926V317.281H965.27ZM966.957 325.344L967.379 325.906C967.066 326 966.582 326.188 965.926 326.469C964.77 326.938 963.957 327.266 963.488 327.453C963.426 327.328 963.301 327.125 963.113 326.844C964.863 326.25 966.145 325.75 966.957 325.344ZM969.816 325.953L970.145 325.391C970.645 325.578 971.441 325.828 972.535 326.141C973.285 326.422 973.801 326.609 974.082 326.703L973.754 327.312C972.348 326.75 971.035 326.297 969.816 325.953ZM980.926 322.109H975.348V321.453H980.926V322.109ZM989.223 316.156H989.832V318.125H992.832V327.359H992.223V326.562H983.785V327.359H983.176V318.125H986.176V316.156H986.785V318.125H989.223V316.156ZM983.785 322.625V326H986.176V322.625H983.785ZM989.832 322.625V326H992.223V322.625H989.832ZM986.785 322.625V326H989.223V322.625H986.785ZM992.223 318.688H989.832V322.016H992.223V318.688ZM983.785 318.688V322.016H986.176V318.688H983.785ZM986.785 318.688V322.016H989.223V318.688H986.785ZM998.41 322.531H1004.41V327.359H1003.75V326.797H999.066V327.359H998.41V322.531ZM997.66 317.656H1000C999.879 317.469 999.613 317.156 999.207 316.719C999.113 316.594 999.035 316.5 998.973 316.438L999.441 316.109C999.566 316.234 999.754 316.438 1000 316.719C1000.25 317 1000.44 317.203 1000.57 317.328L1000.14 317.656H1002.16C1002.22 317.562 1002.33 317.422 1002.49 317.234C1002.89 316.766 1003.19 316.391 1003.38 316.109L1003.89 316.438C1003.8 316.562 1003.61 316.797 1003.33 317.141C1003.14 317.359 1003 317.531 1002.91 317.656H1005.25V318.172H1002.77V320.891H1005.68V321.406H997.191V320.891H1000.1V318.172H997.66V317.656ZM999.066 324.969V326.281H1003.75V324.969H999.066ZM999.066 323.094V324.453H1003.75V323.094H999.066ZM996.254 325.812C996.316 325.75 996.457 325.625 996.676 325.438C997.082 325.031 997.363 324.75 997.52 324.594C997.52 324.688 997.551 324.812 997.613 324.969C997.645 325.125 997.66 325.234 997.66 325.297C996.785 326.016 996.145 326.594 995.738 327.031L995.27 326.422C995.551 326.203 995.676 325.875 995.645 325.438V320.797H994.332V320.234H996.254V325.812ZM1000.66 318.172V320.891H1002.16V318.172H1000.66ZM996.301 318.453C995.801 317.828 995.332 317.281 994.895 316.812L995.363 316.438C995.613 316.688 996.035 317.156 996.629 317.844C996.723 317.938 996.785 318 996.816 318.031L996.301 318.453ZM997.707 318.969L998.176 318.688C998.613 319.094 999.035 319.516 999.441 319.953L998.926 320.328C998.895 320.297 998.832 320.219 998.738 320.094C998.238 319.531 997.895 319.156 997.707 318.969ZM1003.43 319.953C1003.86 319.547 1004.29 319.125 1004.69 318.688L1005.16 319.016C1004.72 319.516 1004.32 319.953 1003.94 320.328L1003.43 319.953ZM1006 326.562L1008.96 316.906H1009.57L1006.57 326.562H1006ZM1014.21 317.375V321.875C1014.21 323.344 1014.11 324.422 1013.93 325.109C1013.74 325.797 1013.33 326.531 1012.71 327.312C1012.58 327.156 1012.41 327.016 1012.19 326.891C1012.79 326.203 1013.16 325.531 1013.32 324.875C1013.5 324.25 1013.6 323.266 1013.6 321.922V316.812H1020.63V326C1020.66 326.781 1020.25 327.188 1019.41 327.219C1019.04 327.219 1018.54 327.219 1017.91 327.219C1017.91 327.156 1017.88 327.047 1017.82 326.891C1017.79 326.766 1017.75 326.656 1017.72 326.562C1018.29 326.594 1018.79 326.609 1019.22 326.609C1019.79 326.641 1020.05 326.406 1020.02 325.906V317.375H1014.21ZM1015.33 322.578H1018.8V325.391H1015.33V322.578ZM1016.83 317.844H1017.44V318.969H1019.08V319.531H1017.44V320.797H1019.46V321.359H1014.77V320.797H1016.83V319.531H1015.14V318.969H1016.83V317.844ZM1011.72 324.781C1011.88 324.625 1012.1 324.344 1012.38 323.938C1012.54 323.75 1012.64 323.609 1012.71 323.516C1012.8 323.734 1012.89 323.938 1012.99 324.125C1012.58 324.625 1012.14 325.156 1011.68 325.719C1011.64 325.75 1011.6 325.797 1011.54 325.859C1011.47 325.922 1011.39 326.031 1011.3 326.188L1010.79 325.953C1011 325.641 1011.11 325.312 1011.11 324.969V320.328H1009.85V319.766H1011.72V324.781ZM1015.89 323.094V324.828H1018.19V323.094H1015.89ZM1012.05 318.547C1011.68 318.016 1011.16 317.391 1010.5 316.672L1010.97 316.297C1011.13 316.453 1011.36 316.719 1011.68 317.094C1012.11 317.562 1012.43 317.891 1012.61 318.078L1012.05 318.547ZM1023.35 321.828H1031.6V327.312H1030.94V326.609H1024V327.359H1023.35V321.828ZM1024 322.391V324.031H1030.94V322.391H1024ZM1024 324.547V326.047H1030.94V324.547H1024ZM1024.66 318.734L1025.18 318.406C1025.33 318.562 1025.54 318.797 1025.79 319.109C1025.97 319.328 1026.11 319.5 1026.21 319.625L1025.69 319.953H1028.74C1029.11 319.422 1029.47 318.891 1029.82 318.359L1030.43 318.734C1030.39 318.766 1030.35 318.828 1030.29 318.922C1029.94 319.359 1029.66 319.703 1029.44 319.953H1033.1V320.562H1021.89V319.953H1025.64C1025.33 319.516 1025 319.109 1024.66 318.734ZM1026.86 316.297L1027.47 316.062C1027.57 316.188 1027.69 316.391 1027.85 316.672C1028 316.922 1028.11 317.125 1028.18 317.281L1027.66 317.516H1032.54V318.078H1022.5V317.516H1027.52C1027.43 317.297 1027.27 317 1027.05 316.625C1026.96 316.469 1026.89 316.359 1026.86 316.297ZM1033.52 326.562L1036.47 316.906H1037.08L1034.08 326.562H1033.52ZM1037.97 320.656H1047.39C1047.39 321.188 1047.36 321.938 1047.3 322.906C1047.27 323.281 1047.25 323.562 1047.25 323.75C1047.19 325.156 1046.47 325.844 1045.1 325.812C1044.54 325.812 1044.04 325.812 1043.6 325.812C1043.57 325.531 1043.52 325.297 1043.46 325.109C1043.52 325.109 1043.64 325.109 1043.83 325.109C1044.3 325.141 1044.69 325.156 1045 325.156C1046.04 325.25 1046.57 324.797 1046.6 323.797C1046.63 323.359 1046.68 322.516 1046.74 321.266H1041.68V327.406H1041.02V321.266H1037.97V320.656ZM1044.77 316.203H1045.38V317.75H1048.66V318.359H1045.38V319.672H1044.77V318.359H1041.3V319.672H1040.64V318.359H1037.41V317.75H1040.64V316.203H1041.3V317.75H1044.77V316.203ZM1053.77 317.75H1055.74C1055.96 317.125 1056.11 316.594 1056.21 316.156L1056.86 316.25C1056.74 316.781 1056.58 317.281 1056.39 317.75H1060.05V327.312H1059.39V326.375H1054.43V327.312H1053.77V317.75ZM1054.43 322.297V325.906H1059.39V322.297H1054.43ZM1054.43 318.359V321.688H1059.39V318.359H1054.43ZM1049.46 323.094L1049.36 322.391C1049.89 322.234 1050.47 322.062 1051.1 321.875V319.109H1049.46V318.5H1051.1V316.25H1051.71V318.5H1053.07V319.109H1051.71V321.688C1052.18 321.531 1052.64 321.391 1053.11 321.266C1053.11 321.516 1053.11 321.734 1053.11 321.922C1052.64 322.047 1052.18 322.188 1051.71 322.344V325.953C1051.74 326.766 1051.33 327.172 1050.49 327.172C1050.24 327.172 1049.96 327.172 1049.64 327.172C1049.64 327.109 1049.63 327.047 1049.6 326.984C1049.57 326.797 1049.54 326.641 1049.5 326.516C1049.82 326.547 1050.11 326.562 1050.39 326.562C1050.89 326.594 1051.13 326.391 1051.1 325.953V322.578C1050.88 322.641 1050.57 322.734 1050.16 322.859C1049.85 322.953 1049.61 323.031 1049.46 323.094Z" fill="white"/>
<path d="M240.051 120.656H242.16C242.223 120.469 242.316 120.203 242.441 119.859C242.535 119.516 242.613 119.266 242.676 119.109L243.285 119.25C243.254 119.344 243.207 119.484 243.145 119.672C243.113 119.797 243.004 120.125 242.816 120.656H246.988V121.172H242.629C242.566 121.359 242.473 121.625 242.348 121.969C242.191 122.344 242.082 122.625 242.02 122.812H244.27V125.391H246.895V125.906H244.27V128.953C244.301 129.734 243.91 130.141 243.098 130.172C242.629 130.172 242.238 130.172 241.926 130.172C241.926 130.109 241.895 129.969 241.832 129.75C241.801 129.656 241.785 129.594 241.785 129.562C242.254 129.562 242.613 129.562 242.863 129.562C243.426 129.625 243.691 129.375 243.66 128.812V125.906H240.379V125.297C240.535 124.984 240.77 124.422 241.082 123.609C241.113 123.484 241.145 123.391 241.176 123.328H240.145V122.812H241.41C241.598 122.281 241.785 121.734 241.973 121.172H240.051V120.656ZM237.004 126.234C237.035 126.234 237.082 126.234 237.145 126.234C237.832 126.141 238.66 126.016 239.629 125.859C239.629 125.922 239.613 126.031 239.582 126.188C239.582 126.312 239.566 126.422 239.535 126.516C238.191 126.641 237.113 126.797 236.301 126.984L236.02 126.375C236.238 126.25 236.41 126.094 236.535 125.906C236.848 125.562 237.379 124.828 238.129 123.703C237.316 123.703 236.629 123.734 236.066 123.797L235.879 123.234C236.098 123.109 236.254 122.953 236.348 122.766C236.879 121.859 237.52 120.641 238.27 119.109L238.879 119.344C238.066 120.906 237.348 122.188 236.723 123.188C236.973 123.188 237.301 123.172 237.707 123.141C238.051 123.141 238.301 123.141 238.457 123.141C238.801 122.609 239.082 122.141 239.301 121.734L239.91 122.016C238.754 123.828 237.785 125.234 237.004 126.234ZM240.988 125.391H243.66V123.328H241.832C241.551 124.047 241.27 124.734 240.988 125.391ZM236.02 129.281L235.879 128.719C236.598 128.625 237.676 128.438 239.113 128.156C239.395 128.125 239.598 128.094 239.723 128.062C239.723 128.219 239.723 128.438 239.723 128.719C238.504 128.906 237.27 129.094 236.02 129.281ZM241.738 126.844L242.254 127.125C241.629 128.094 240.988 128.938 240.332 129.656C240.176 129.5 240.004 129.359 239.816 129.234C240.41 128.672 241.051 127.875 241.738 126.844ZM245.207 127.172L245.723 126.844C245.91 127.125 246.238 127.594 246.707 128.25C247.02 128.688 247.238 128.984 247.363 129.141L246.801 129.516C246.457 129.016 245.926 128.234 245.207 127.172ZM248.676 120.188H258.191C258.191 120.438 258.191 120.812 258.191 121.312C258.129 124.062 258.066 126.109 258.004 127.453C258.004 129.203 257.145 130.047 255.426 129.984C254.926 130.016 254.238 130.031 253.363 130.031C253.332 129.75 253.27 129.484 253.176 129.234C253.707 129.266 254.426 129.281 255.332 129.281C256.738 129.375 257.395 128.719 257.301 127.312C257.426 124.812 257.488 122.641 257.488 120.797H248.676V120.188ZM248.723 128.297L248.441 127.547C251.441 126.609 254.035 125.75 256.223 124.969C256.223 125.25 256.254 125.516 256.316 125.766C253.379 126.703 250.848 127.547 248.723 128.297ZM249.895 122.672L250.27 122.109C251.957 122.859 253.223 123.469 254.066 123.938L253.691 124.547C252.285 123.766 251.02 123.141 249.895 122.672Z" fill="white"/>
<path d="M241.785 12.375C241.879 12.3125 242.051 12.2344 242.301 12.1406C242.645 12.0156 243.145 11.7656 243.801 11.3906C243.801 11.6094 243.832 11.8125 243.895 12C243.457 12.1562 242.801 12.4688 241.926 12.9375C241.895 12.9688 241.863 12.9844 241.832 12.9844C241.582 13.1094 241.41 13.2344 241.316 13.3594L240.848 12.8906C241.066 12.6719 241.176 12.375 241.176 12V2.8125H246.238V8.0625H243.613C243.863 8.9375 244.145 9.60938 244.457 10.0781C244.582 10.0156 244.754 9.90625 244.973 9.75C245.441 9.46875 246.004 9.09375 246.66 8.625L247.035 9.14062C246.723 9.35938 246.16 9.71875 245.348 10.2188C245.098 10.375 244.91 10.4844 244.785 10.5469C245.348 11.2969 246.176 11.9375 247.27 12.4688C247.082 12.6562 246.926 12.8281 246.801 12.9844C244.707 11.8594 243.441 10.2188 243.004 8.0625H241.785V12.375ZM236.535 7.5H237.145V11.9062C237.27 11.875 237.473 11.8281 237.754 11.7656C238.004 11.7344 238.191 11.7031 238.316 11.6719V6.1875H236.723V2.8125H240.004V6.1875H238.879V8.29688H240.285V8.8125H238.879V11.5781C239.348 11.4844 239.801 11.3906 240.238 11.2969C240.238 11.5156 240.254 11.7188 240.285 11.9062C239.004 12.0312 237.598 12.2656 236.066 12.6094L235.926 12H236.535V7.5ZM241.785 3.32812V5.15625H245.629V3.32812H241.785ZM241.785 7.5H245.629V5.71875H241.785V7.5ZM237.285 3.32812V5.67188H239.441V3.32812H237.285ZM252.051 3.65625H254.16C254.223 3.46875 254.316 3.20313 254.441 2.85938C254.535 2.51562 254.613 2.26563 254.676 2.10938L255.285 2.25C255.254 2.34375 255.207 2.48438 255.145 2.67188C255.113 2.79687 255.004 3.125 254.816 3.65625H258.988V4.17188H254.629C254.566 4.35938 254.473 4.625 254.348 4.96875C254.191 5.34375 254.082 5.625 254.02 5.8125H256.27V8.39062H258.895V8.90625H256.27V11.9531C256.301 12.7344 255.91 13.1406 255.098 13.1719C254.629 13.1719 254.238 13.1719 253.926 13.1719C253.926 13.1094 253.895 12.9688 253.832 12.75C253.801 12.6562 253.785 12.5938 253.785 12.5625C254.254 12.5625 254.613 12.5625 254.863 12.5625C255.426 12.625 255.691 12.375 255.66 11.8125V8.90625H252.379V8.29688C252.535 7.98438 252.77 7.42188 253.082 6.60938C253.113 6.48438 253.145 6.39062 253.176 6.32812H252.145V5.8125H253.41C253.598 5.28125 253.785 4.73438 253.973 4.17188H252.051V3.65625ZM249.004 9.23438C249.035 9.23438 249.082 9.23438 249.145 9.23438C249.832 9.14062 250.66 9.01562 251.629 8.85938C251.629 8.92188 251.613 9.03125 251.582 9.1875C251.582 9.3125 251.566 9.42188 251.535 9.51562C250.191 9.64062 249.113 9.79688 248.301 9.98438L248.02 9.375C248.238 9.25 248.41 9.09375 248.535 8.90625C248.848 8.5625 249.379 7.82812 250.129 6.70312C249.316 6.70312 248.629 6.73438 248.066 6.79688L247.879 6.23438C248.098 6.10938 248.254 5.95312 248.348 5.76562C248.879 4.85938 249.52 3.64062 250.27 2.10938L250.879 2.34375C250.066 3.90625 249.348 5.1875 248.723 6.1875C248.973 6.1875 249.301 6.17188 249.707 6.14062C250.051 6.14062 250.301 6.14062 250.457 6.14062C250.801 5.60938 251.082 5.14062 251.301 4.73438L251.91 5.01562C250.754 6.82812 249.785 8.23438 249.004 9.23438ZM252.988 8.39062H255.66V6.32812H253.832C253.551 7.04688 253.27 7.73438 252.988 8.39062ZM248.02 12.2812L247.879 11.7188C248.598 11.625 249.676 11.4375 251.113 11.1562C251.395 11.125 251.598 11.0938 251.723 11.0625C251.723 11.2188 251.723 11.4375 251.723 11.7188C250.504 11.9062 249.27 12.0938 248.02 12.2812ZM253.738 9.84375L254.254 10.125C253.629 11.0938 252.988 11.9375 252.332 12.6562C252.176 12.5 252.004 12.3594 251.816 12.2344C252.41 11.6719 253.051 10.875 253.738 9.84375ZM257.207 10.1719L257.723 9.84375C257.91 10.125 258.238 10.5938 258.707 11.25C259.02 11.6875 259.238 11.9844 259.363 12.1406L258.801 12.5156C258.457 12.0156 257.926 11.2344 257.207 10.1719Z" fill="#48C590"/>
<path d="M232.285 415.375V419.875C232.285 421.344 232.191 422.422 232.004 423.109C231.816 423.797 231.41 424.531 230.785 425.312C230.66 425.156 230.488 425.016 230.27 424.891C230.863 424.203 231.238 423.531 231.395 422.875C231.582 422.25 231.676 421.266 231.676 419.922V414.812H238.707V424C238.738 424.781 238.332 425.188 237.488 425.219C237.113 425.219 236.613 425.219 235.988 425.219C235.988 425.156 235.957 425.047 235.895 424.891C235.863 424.766 235.832 424.656 235.801 424.562C236.363 424.594 236.863 424.609 237.301 424.609C237.863 424.641 238.129 424.406 238.098 423.906V415.375H232.285ZM233.41 420.578H236.879V423.391H233.41V420.578ZM234.91 415.844H235.52V416.969H237.16V417.531H235.52V418.797H237.535V419.359H232.848V418.797H234.91V417.531H233.223V416.969H234.91V415.844ZM229.801 422.781C229.957 422.625 230.176 422.344 230.457 421.938C230.613 421.75 230.723 421.609 230.785 421.516C230.879 421.734 230.973 421.938 231.066 422.125C230.66 422.625 230.223 423.156 229.754 423.719C229.723 423.75 229.676 423.797 229.613 423.859C229.551 423.922 229.473 424.031 229.379 424.188L228.863 423.953C229.082 423.641 229.191 423.312 229.191 422.969V418.328H227.926V417.766H229.801V422.781ZM233.973 421.094V422.828H236.27V421.094H233.973ZM230.129 416.547C229.754 416.016 229.238 415.391 228.582 414.672L229.051 414.297C229.207 414.453 229.441 414.719 229.754 415.094C230.191 415.562 230.504 415.891 230.691 416.078L230.129 416.547ZM241.426 419.828H249.676V425.312H249.02V424.609H242.082V425.359H241.426V419.828ZM242.082 420.391V422.031H249.02V420.391H242.082ZM242.082 422.547V424.047H249.02V422.547H242.082ZM242.738 416.734L243.254 416.406C243.41 416.562 243.613 416.797 243.863 417.109C244.051 417.328 244.191 417.5 244.285 417.625L243.77 417.953H246.816C247.191 417.422 247.551 416.891 247.895 416.359L248.504 416.734C248.473 416.766 248.426 416.828 248.363 416.922C248.02 417.359 247.738 417.703 247.52 417.953H251.176V418.562H239.973V417.953H243.723C243.41 417.516 243.082 417.109 242.738 416.734ZM244.941 414.297L245.551 414.062C245.645 414.188 245.77 414.391 245.926 414.672C246.082 414.922 246.191 415.125 246.254 415.281L245.738 415.516H250.613V416.078H240.582V415.516H245.598C245.504 415.297 245.348 415 245.129 414.625C245.035 414.469 244.973 414.359 244.941 414.297ZM262.895 421.516C260.145 421.391 258.426 420.688 257.738 419.406H257.457C257.145 420.5 255.41 421.234 252.254 421.609C252.223 421.547 252.176 421.453 252.113 421.328C252.02 421.203 251.957 421.109 251.926 421.047C254.801 420.734 256.426 420.188 256.801 419.406H252.301V418.891H257.035C257.129 418.609 257.191 418.281 257.223 417.906H257.832C257.801 418.281 257.738 418.609 257.645 418.891H260.035C259.91 418.672 259.754 418.406 259.566 418.094L260.129 417.859C260.316 418.172 260.504 418.516 260.691 418.891H262.988V419.406H258.395C259.113 420.375 260.723 420.875 263.223 420.906C263.191 420.969 263.113 421.109 262.988 421.328C262.926 421.422 262.895 421.484 262.895 421.516ZM258.301 421.891H262.238V425.359H261.629V424.75H258.91V425.312H258.301V421.891ZM252.91 421.891H256.801V425.312H256.238V424.75H253.52V425.359H252.91V421.891ZM258.301 414.812H262.191V417.672H258.301V414.812ZM252.91 414.812H256.754V417.672H252.91V414.812ZM258.91 422.406V424.234H261.629V422.406H258.91ZM253.52 422.406V424.234H256.238V422.406H253.52ZM258.91 415.328V417.156H261.582V415.328H258.91ZM253.52 415.328V417.156H256.191V415.328H253.52Z" fill="#48C590"/>
<path d="M395.879 80.8125H400.098V87.9844H399.535V81.4219H396.488V87.9844H395.879V80.8125ZM397.707 82.6875H398.27V85.0781C398.27 86.7656 398.129 87.9844 397.848 88.7344L398.176 88.4062C398.426 88.5938 398.863 88.9531 399.488 89.4844C400.051 89.9219 400.441 90.2344 400.66 90.4219L400.191 90.8906C399.785 90.5156 399.035 89.875 397.941 88.9688C397.879 88.9062 397.832 88.8594 397.801 88.8281C397.488 89.6406 396.691 90.4844 395.41 91.3594C395.285 91.1719 395.145 91 394.988 90.8438C396.176 90.125 396.91 89.4062 397.191 88.6875C397.566 88.0312 397.738 86.8281 397.707 85.0781V82.6875ZM403.191 80.2031H403.754V89.8594C403.785 90.7031 403.41 91.1406 402.629 91.1719C402.191 91.2031 401.785 91.2188 401.41 91.2188C401.41 91.1562 401.395 91.0781 401.363 90.9844C401.332 90.7969 401.301 90.6562 401.27 90.5625C401.363 90.5625 401.52 90.5625 401.738 90.5625C401.988 90.5938 402.176 90.6094 402.301 90.6094C402.926 90.6406 403.223 90.3438 403.191 89.7188V80.2031ZM401.879 88.6875H401.316V81.1406H401.879V88.6875ZM393.207 90.8906C393.832 89.2031 394.254 87.8594 394.473 86.8594C394.598 86.9219 394.754 86.9844 394.941 87.0469C395.035 87.0781 395.098 87.1094 395.129 87.1406C394.848 87.9531 394.457 89.1719 393.957 90.7969C393.895 90.9844 393.848 91.125 393.816 91.2188L393.207 90.8906ZM394.895 82.3594C394.582 82.0469 394.191 81.6875 393.723 81.2812C393.535 81.125 393.379 81 393.254 80.9062L393.676 80.5312C394.207 80.875 394.77 81.3281 395.363 81.8906L394.895 82.3594ZM394.52 85.3125C394.238 85.0312 393.707 84.5781 392.926 83.9531L393.348 83.5781C393.848 83.8906 394.41 84.3125 395.035 84.8438L394.52 85.3125ZM412.613 80.25H413.27C413.27 81.0938 413.27 81.8594 413.27 82.5469H416.129V83.1094H413.27C413.27 86.2656 413.52 88.4531 414.02 89.6719C414.27 90.3281 414.566 90.6562 414.91 90.6562C415.191 90.6875 415.379 90.4688 415.473 90C415.598 89.4375 415.691 88.9219 415.754 88.4531C415.91 88.5469 416.098 88.625 416.316 88.6875C416.254 89.4062 416.16 89.9375 416.035 90.2812C415.879 90.9375 415.504 91.2656 414.91 91.2656C414.254 91.2969 413.754 90.8438 413.41 89.9062C412.91 88.6562 412.645 86.3906 412.613 83.1094H408.301V82.5469H412.613C412.613 81.8594 412.613 81.0938 412.613 80.25ZM408.301 90.6094L408.113 90C408.645 90 409.254 89.9219 409.941 89.7656V85.875H408.301V85.3125H412.051V85.875H410.598V89.6719L412.473 89.3438C412.441 89.5 412.426 89.7188 412.426 90C411.926 90 410.707 90.1719 408.77 90.5156C408.551 90.5469 408.395 90.5781 408.301 90.6094ZM406.895 89.25C407.457 88.7188 407.879 88.2656 408.16 87.8906L408.395 88.6406C408.238 88.7656 407.988 89 407.645 89.3438C407.27 89.6875 407.004 89.9219 406.848 90.0469C406.785 90.1406 406.676 90.2656 406.52 90.4219C406.426 90.5156 406.363 90.5938 406.332 90.6562L405.863 90.1406C406.113 89.9219 406.238 89.5625 406.238 89.0625V84.6562H404.926V84.0469H406.895V89.25ZM407.035 82.7344C406.41 81.9844 405.863 81.375 405.395 80.9062L405.863 80.5312C406.051 80.7188 406.363 81.0312 406.801 81.4688C407.145 81.8438 407.395 82.1094 407.551 82.2656L407.035 82.7344ZM413.738 81.0469L414.16 80.625C414.723 81 415.191 81.3594 415.566 81.7031L415.145 82.1719C414.613 81.7344 414.145 81.3594 413.738 81.0469Z" fill="#48C590"/>
<path d="M445.535 211.656H454.957C454.957 212.188 454.926 212.938 454.863 213.906C454.832 214.281 454.816 214.562 454.816 214.75C454.754 216.156 454.035 216.844 452.66 216.812C452.098 216.812 451.598 216.812 451.16 216.812C451.129 216.531 451.082 216.297 451.02 216.109C451.082 216.109 451.207 216.109 451.395 216.109C451.863 216.141 452.254 216.156 452.566 216.156C453.598 216.25 454.129 215.797 454.16 214.797C454.191 214.359 454.238 213.516 454.301 212.266H449.238V218.406H448.582V212.266H445.535V211.656ZM452.332 207.203H452.941V208.75H456.223V209.359H452.941V210.672H452.332V209.359H448.863V210.672H448.207V209.359H444.973V208.75H448.207V207.203H448.863V208.75H452.332V207.203ZM461.332 208.75H463.301C463.52 208.125 463.676 207.594 463.77 207.156L464.426 207.25C464.301 207.781 464.145 208.281 463.957 208.75H467.613V218.312H466.957V217.375H461.988V218.312H461.332V208.75ZM461.988 213.297V216.906H466.957V213.297H461.988ZM461.988 209.359V212.688H466.957V209.359H461.988ZM457.02 214.094L456.926 213.391C457.457 213.234 458.035 213.062 458.66 212.875V210.109H457.02V209.5H458.66V207.25H459.27V209.5H460.629V210.109H459.27V212.688C459.738 212.531 460.207 212.391 460.676 212.266C460.676 212.516 460.676 212.734 460.676 212.922C460.207 213.047 459.738 213.188 459.27 213.344V216.953C459.301 217.766 458.895 218.172 458.051 218.172C457.801 218.172 457.52 218.172 457.207 218.172C457.207 218.109 457.191 218.047 457.16 217.984C457.129 217.797 457.098 217.641 457.066 217.516C457.379 217.547 457.676 217.562 457.957 217.562C458.457 217.594 458.691 217.391 458.66 216.953V213.578C458.441 213.641 458.129 213.734 457.723 213.859C457.41 213.953 457.176 214.031 457.02 214.094ZM479.895 214.516C477.145 214.391 475.426 213.688 474.738 212.406H474.457C474.145 213.5 472.41 214.234 469.254 214.609C469.223 214.547 469.176 214.453 469.113 214.328C469.02 214.203 468.957 214.109 468.926 214.047C471.801 213.734 473.426 213.188 473.801 212.406H469.301V211.891H474.035C474.129 211.609 474.191 211.281 474.223 210.906H474.832C474.801 211.281 474.738 211.609 474.645 211.891H477.035C476.91 211.672 476.754 211.406 476.566 211.094L477.129 210.859C477.316 211.172 477.504 211.516 477.691 211.891H479.988V212.406H475.395C476.113 213.375 477.723 213.875 480.223 213.906C480.191 213.969 480.113 214.109 479.988 214.328C479.926 214.422 479.895 214.484 479.895 214.516ZM475.301 214.891H479.238V218.359H478.629V217.75H475.91V218.312H475.301V214.891ZM469.91 214.891H473.801V218.312H473.238V217.75H470.52V218.359H469.91V214.891ZM475.301 207.812H479.191V210.672H475.301V207.812ZM469.91 207.812H473.754V210.672H469.91V207.812ZM475.91 215.406V217.234H478.629V215.406H475.91ZM470.52 215.406V217.234H473.238V215.406H470.52ZM475.91 208.328V210.156H478.582V208.328H475.91ZM470.52 208.328V210.156H473.191V208.328H470.52Z" fill="#48C590"/>
<path d="M397.613 349.484C397.676 349.297 397.77 349 397.895 348.594C397.988 348.25 398.066 348 398.129 347.844H396.16V347.281H398.27C398.457 346.656 398.629 346.062 398.785 345.5H396.77V344.891H398.926C399.082 344.328 399.207 343.781 399.301 343.25L400.004 343.344C399.879 343.844 399.738 344.359 399.582 344.891H403.801V345.5H399.441C399.379 345.844 399.238 346.328 399.02 346.953C398.988 347.109 398.957 347.219 398.926 347.281H404.27V347.844H398.785C398.629 348.438 398.457 349.016 398.27 349.578H403.52V350.234L400.801 353C401.332 353.219 401.879 353.5 402.441 353.844L401.973 354.406C400.941 353.75 399.645 352.984 398.082 352.109C397.613 351.859 397.254 351.656 397.004 351.5L397.379 351.031C398.285 351.531 399.238 352.078 400.238 352.672L402.77 350.141H397.613V349.484ZM393.207 349.578C393.113 349.297 393.02 349.047 392.926 348.828C393.988 347.266 394.832 345.406 395.457 343.25L396.16 343.391C395.848 344.266 395.535 345.109 395.223 345.922V354.359H394.566V347.281C394.129 348.156 393.676 348.922 393.207 349.578ZM408.77 344.797H412.285C412.191 344.422 411.988 343.922 411.676 343.297L412.285 343.109C412.441 343.422 412.66 343.906 412.941 344.562L412.379 344.797H416.082V345.359H411.582L412.191 345.641C411.504 346.516 410.738 347.422 409.895 348.359C410.113 348.359 410.457 348.344 410.926 348.312C412.582 348.281 413.723 348.234 414.348 348.172C414.16 347.984 413.895 347.656 413.551 347.188C413.457 347.062 413.379 346.969 413.316 346.906L413.832 346.578C414.082 346.891 414.473 347.375 415.004 348.031C415.473 348.594 415.785 348.984 415.941 349.203L415.426 349.625C415.363 349.531 415.254 349.375 415.098 349.156C414.941 348.969 414.816 348.828 414.723 348.734C414.598 348.734 414.41 348.734 414.16 348.734C413.879 348.766 413.66 348.781 413.504 348.781V352.672C413.473 353.234 413.723 353.5 414.254 353.469H414.535C415.16 353.5 415.488 353.266 415.52 352.766C415.551 352.641 415.582 352.359 415.613 351.922C415.645 351.766 415.66 351.641 415.66 351.547C415.879 351.641 416.082 351.703 416.27 351.734C416.238 352.109 416.191 352.531 416.129 353C416.035 353.719 415.504 354.062 414.535 354.031H414.16C413.254 354.062 412.816 353.656 412.848 352.812V348.781C412.691 348.781 412.441 348.797 412.098 348.828C411.785 348.828 411.551 348.844 411.395 348.875C411.395 350.469 411.191 351.609 410.785 352.297C410.41 353.016 409.629 353.719 408.441 354.406C408.348 354.25 408.207 354.078 408.02 353.891C409.207 353.266 409.941 352.641 410.223 352.016C410.598 351.422 410.77 350.375 410.738 348.875C410.582 348.906 410.457 348.922 410.363 348.922C409.926 348.922 409.52 348.969 409.145 349.062L408.816 348.406C409.16 348.25 409.395 348.078 409.52 347.891C410.301 347.078 410.973 346.234 411.535 345.359H408.77V344.797ZM406.098 350.188C406.41 350.156 406.879 350.109 407.504 350.047C407.973 350.016 408.348 349.984 408.629 349.953C408.566 350.078 408.535 350.266 408.535 350.516C408.254 350.547 407.863 350.578 407.363 350.609C406.363 350.703 405.691 350.781 405.348 350.844L405.113 350.281C405.363 350.125 405.707 349.781 406.145 349.25C406.207 349.156 406.301 349.016 406.426 348.828C406.582 348.609 406.863 348.219 407.27 347.656C406.645 347.656 405.926 347.688 405.113 347.75L404.926 347.141C405.238 346.859 405.488 346.562 405.676 346.25C406.457 345.062 407.051 344.031 407.457 343.156L408.16 343.391C407.285 344.859 406.473 346.109 405.723 347.141C405.879 347.141 406.145 347.141 406.52 347.141C407.02 347.109 407.379 347.094 407.598 347.094C407.723 346.906 407.879 346.641 408.066 346.297C408.191 346.109 408.285 345.969 408.348 345.875L408.957 346.109C407.863 347.797 406.91 349.156 406.098 350.188ZM405.066 353.234L404.879 352.719C406.348 352.5 407.645 352.266 408.77 352.016C408.77 352.203 408.77 352.406 408.77 352.625C408.613 352.656 408.348 352.703 407.973 352.766C406.723 352.922 405.754 353.078 405.066 353.234ZM421.004 349.531H427.004V354.359H426.348V353.797H421.66V354.359H421.004V349.531ZM420.254 344.656H422.598C422.473 344.469 422.207 344.156 421.801 343.719C421.707 343.594 421.629 343.5 421.566 343.438L422.035 343.109C422.16 343.234 422.348 343.438 422.598 343.719C422.848 344 423.035 344.203 423.16 344.328L422.738 344.656H424.754C424.816 344.562 424.926 344.422 425.082 344.234C425.488 343.766 425.785 343.391 425.973 343.109L426.488 343.438C426.395 343.562 426.207 343.797 425.926 344.141C425.738 344.359 425.598 344.531 425.504 344.656H427.848V345.172H425.363V347.891H428.27V348.406H419.785V347.891H422.691V345.172H420.254V344.656ZM421.66 351.969V353.281H426.348V351.969H421.66ZM421.66 350.094V351.453H426.348V350.094H421.66ZM418.848 352.812C418.91 352.75 419.051 352.625 419.27 352.438C419.676 352.031 419.957 351.75 420.113 351.594C420.113 351.688 420.145 351.812 420.207 351.969C420.238 352.125 420.254 352.234 420.254 352.297C419.379 353.016 418.738 353.594 418.332 354.031L417.863 353.422C418.145 353.203 418.27 352.875 418.238 352.438V347.797H416.926V347.234H418.848V352.812ZM423.254 345.172V347.891H424.754V345.172H423.254ZM418.895 345.453C418.395 344.828 417.926 344.281 417.488 343.812L417.957 343.438C418.207 343.688 418.629 344.156 419.223 344.844C419.316 344.938 419.379 345 419.41 345.031L418.895 345.453ZM420.301 345.969L420.77 345.688C421.207 346.094 421.629 346.516 422.035 346.953L421.52 347.328C421.488 347.297 421.426 347.219 421.332 347.094C420.832 346.531 420.488 346.156 420.301 345.969ZM426.02 346.953C426.457 346.547 426.879 346.125 427.285 345.688L427.754 346.016C427.316 346.516 426.91 346.953 426.535 347.328L426.02 346.953ZM429.066 343.859H440.082V344.469H434.738L434.035 346.25H439.426V354.359H438.816V353.656H430.332V354.359H429.676V346.25H433.379L433.988 344.469H429.066V343.859ZM438.816 346.859H436.613V353.094H438.816V346.859ZM430.332 346.859V353.094H432.488V346.859H430.332ZM433.098 349.156V350.891H436.004V349.156H433.098ZM433.098 346.859V348.594H436.004V346.859H433.098ZM433.098 351.453V353.094H436.004V351.453H433.098Z" fill="#48C590"/>
<path d="M65.0195 348.062H67.3633V343.938H65.3945V343.375H67.3633V342.156H67.9727V343.375H73.2227V342.156H73.8789V343.375H75.8477V343.938H73.8789V348.062H76.1758V348.625H72.5664C73.4727 349.562 74.6914 350.297 76.2227 350.828C76.1914 350.891 76.1445 350.984 76.082 351.109C75.9883 351.234 75.9258 351.328 75.8945 351.391C74.0195 350.641 72.6758 349.719 71.8633 348.625H69.2852C68.3164 349.75 67.0039 350.734 65.3477 351.578C65.2539 351.391 65.1289 351.203 64.9727 351.016C66.4727 350.359 67.6602 349.562 68.5352 348.625H65.0195V348.062ZM70.3164 349.234H70.9258V350.359H73.6445V350.875H70.9258V352.234H75.4727V352.75H65.6758V352.234H70.3164V350.875H67.5508V350.359H70.3164V349.234ZM67.9727 347.031V348.062H73.2227V347.031H67.9727ZM67.9727 345.484V346.516H73.2227V345.484H67.9727ZM67.9727 343.938V344.969H73.2227V343.938H67.9727ZM77.4414 351.344C77.3789 351.219 77.2227 351.031 76.9727 350.781C79.0977 349.312 80.6758 347.328 81.707 344.828H77.3945V344.266H82.2695V342.156H82.9258V344.266H87.8008V344.828H83.4883C84.4883 347.266 86.082 349.172 88.2695 350.547C88.082 350.766 87.9102 350.969 87.7539 351.156C85.5039 349.562 83.9102 347.453 82.9727 344.828H82.9258V350.453H85.5977V351.062H82.9258V353.359H82.2695V351.062H79.5039V350.453H82.2695V344.828H82.2227C81.3164 347.547 79.7227 349.719 77.4414 351.344ZM93.6602 344.641H95.3008C95.332 344.078 95.3477 343.281 95.3477 342.25H96.0039C96.0039 343.312 95.9883 344.109 95.957 344.641H99.707C99.6445 347.328 99.5664 349.547 99.4727 351.297C99.4727 352.516 98.832 353.109 97.5508 353.078C97.2383 353.109 96.6758 353.125 95.8633 353.125C95.832 353 95.8008 352.844 95.7695 352.656C95.7383 352.562 95.7227 352.484 95.7227 352.422C96.0664 352.453 96.6602 352.469 97.5039 352.469C98.3789 352.5 98.8164 352.125 98.8164 351.344C98.9102 349.938 98.9883 347.906 99.0508 345.25H95.9102C95.9102 345.375 95.9102 345.562 95.9102 345.812C95.8789 346.062 95.8633 346.25 95.8633 346.375C95.7383 349.562 94.5508 351.891 92.3008 353.359C92.2383 353.297 92.1289 353.188 91.9727 353.031C91.8477 352.938 91.7695 352.875 91.7383 352.844C93.957 351.594 95.1133 349.422 95.207 346.328C95.207 346.234 95.207 346.094 95.207 345.906C95.2383 345.625 95.2539 345.406 95.2539 345.25H93.6602V344.641ZM89.1133 351.297L88.9258 350.641C89.5195 350.484 90.207 350.312 90.9883 350.125V344.266H89.0195V343.656H93.4258V344.266H91.6445V349.938C92.1445 349.812 92.7383 349.656 93.4258 349.469C93.4258 349.594 93.457 349.812 93.5195 350.125C92.5508 350.375 91.082 350.766 89.1133 351.297Z" fill="#48C590"/>
<path d="M5.33203 208H11.4258V213.625H5.33203V208ZM5.98828 208.609V213.062H10.8164V208.609H5.98828ZM2.98828 216.203C3.39453 215.953 4.00391 215.484 4.81641 214.797L4.91016 215.5C4.31641 215.938 3.67578 216.438 2.98828 217C2.89453 217.031 2.73828 217.156 2.51953 217.375L2.05078 216.906C2.26953 216.656 2.37891 216.312 2.37891 215.875V211.703H0.878906V211.094H2.98828V216.203ZM6.78516 214.656L7.34766 214.984C6.62891 216.047 5.73828 217.156 4.67578 218.312L4.16016 217.844C5.12891 216.906 6.00391 215.844 6.78516 214.656ZM9.22266 214.984L9.73828 214.656C10.6445 215.75 11.4883 216.797 12.2695 217.797L11.707 218.219C11.1133 217.406 10.2852 216.328 9.22266 214.984ZM3.55078 209.828C3.42578 209.672 3.19141 209.406 2.84766 209.031C2.34766 208.5 2.00391 208.125 1.81641 207.906L2.33203 207.531C2.45703 207.688 2.67578 207.922 2.98828 208.234C3.58203 208.859 3.94141 209.25 4.06641 209.406L3.55078 209.828ZM17.0039 213.531H23.0039V218.359H22.3477V217.797H17.6602V218.359H17.0039V213.531ZM16.2539 208.656H18.5977C18.4727 208.469 18.207 208.156 17.8008 207.719C17.707 207.594 17.6289 207.5 17.5664 207.438L18.0352 207.109C18.1602 207.234 18.3477 207.438 18.5977 207.719C18.8477 208 19.0352 208.203 19.1602 208.328L18.7383 208.656H20.7539C20.8164 208.562 20.9258 208.422 21.082 208.234C21.4883 207.766 21.7852 207.391 21.9727 207.109L22.4883 207.438C22.3945 207.562 22.207 207.797 21.9258 208.141C21.7383 208.359 21.5977 208.531 21.5039 208.656H23.8477V209.172H21.3633V211.891H24.2695V212.406H15.7852V211.891H18.6914V209.172H16.2539V208.656ZM17.6602 215.969V217.281H22.3477V215.969H17.6602ZM17.6602 214.094V215.453H22.3477V214.094H17.6602ZM14.8477 216.812C14.9102 216.75 15.0508 216.625 15.2695 216.438C15.6758 216.031 15.957 215.75 16.1133 215.594C16.1133 215.688 16.1445 215.812 16.207 215.969C16.2383 216.125 16.2539 216.234 16.2539 216.297C15.3789 217.016 14.7383 217.594 14.332 218.031L13.8633 217.422C14.1445 217.203 14.2695 216.875 14.2383 216.438V211.797H12.9258V211.234H14.8477V216.812ZM19.2539 209.172V211.891H20.7539V209.172H19.2539ZM14.8945 209.453C14.3945 208.828 13.9258 208.281 13.4883 207.812L13.957 207.438C14.207 207.688 14.6289 208.156 15.2227 208.844C15.3164 208.938 15.3789 209 15.4102 209.031L14.8945 209.453ZM16.3008 209.969L16.7695 209.688C17.207 210.094 17.6289 210.516 18.0352 210.953L17.5195 211.328C17.4883 211.297 17.4258 211.219 17.332 211.094C16.832 210.531 16.4883 210.156 16.3008 209.969ZM22.0195 210.953C22.457 210.547 22.8789 210.125 23.2852 209.688L23.7539 210.016C23.3164 210.516 22.9102 210.953 22.5352 211.328L22.0195 210.953ZM30.5039 213.859L33.0352 212.406H27.2227V211.797H33.832V212.547L31.1602 214.141V214.609H36.2227V215.219H31.1602V216.953C31.1914 217.859 30.7383 218.312 29.8008 218.312C29.332 218.312 28.8164 218.312 28.2539 218.312C28.2539 218.25 28.2383 218.172 28.207 218.078C28.1758 217.859 28.1445 217.688 28.1133 217.562C28.582 217.594 29.082 217.609 29.6133 217.609C30.2695 217.672 30.5664 217.406 30.5039 216.812V215.219H24.9727V214.609H30.5039V213.859ZM25.3945 209.734H35.8477V211.938H35.1914V210.344H26.0508V211.938H25.3945V209.734ZM33.2227 209.594L32.6602 209.172C33.2539 208.578 33.7852 207.969 34.2539 207.344L34.8164 207.766C34.6602 207.953 34.4102 208.234 34.0664 208.609C33.6914 209.047 33.4102 209.375 33.2227 209.594ZM29.5195 207.438L30.082 207.156C30.5195 207.719 30.9414 208.328 31.3477 208.984L30.7383 209.312C30.332 208.625 29.9258 208 29.5195 207.438ZM26.332 207.766L26.8477 207.438C27.4102 208.062 27.8633 208.609 28.207 209.078L27.6445 209.5C27.332 209.031 26.8945 208.453 26.332 207.766ZM37.6758 208.188H47.1914C47.1914 208.438 47.1914 208.812 47.1914 209.312C47.1289 212.062 47.0664 214.109 47.0039 215.453C47.0039 217.203 46.1445 218.047 44.4258 217.984C43.9258 218.016 43.2383 218.031 42.3633 218.031C42.332 217.75 42.2695 217.484 42.1758 217.234C42.707 217.266 43.4258 217.281 44.332 217.281C45.7383 217.375 46.3945 216.719 46.3008 215.312C46.4258 212.812 46.4883 210.641 46.4883 208.797H37.6758V208.188ZM37.7227 216.297L37.4414 215.547C40.4414 214.609 43.0352 213.75 45.2227 212.969C45.2227 213.25 45.2539 213.516 45.3164 213.766C42.3789 214.703 39.8477 215.547 37.7227 216.297ZM38.8945 210.672L39.2695 210.109C40.957 210.859 42.2227 211.469 43.0664 211.938L42.6914 212.547C41.2852 211.766 40.0195 211.141 38.8945 210.672Z" fill="#48C590"/>
<path d="M56.8477 82.6094H64.3008V83.2188H60.9258V85.3281H64.7695V85.9375H60.9258V88.1406H65.8008V88.75H55.3945V88.1406H60.2695V85.9375H56.4258V85.3281H60.2695V83.2188H56.8477V82.6094ZM65.8008 82.9844C63.4883 81.8594 61.7695 80.5156 60.6445 78.9531C59.207 80.6406 57.4414 82.0156 55.3477 83.0781C55.1914 82.8906 55.0352 82.7188 54.8789 82.5625C57.4414 81.2188 59.3164 79.7188 60.5039 78.0625L61.207 78.2031C61.1445 78.2969 61.0664 78.3906 60.9727 78.4844C62.2539 80.1094 64.0195 81.4062 66.2695 82.375C66.1758 82.5312 66.0195 82.7344 65.8008 82.9844ZM73.8164 78.1562H74.4258V80.125H77.4258V89.3594H76.8164V88.5625H68.3789V89.3594H67.7695V80.125H70.7695V78.1562H71.3789V80.125H73.8164V78.1562ZM68.3789 84.625V88H70.7695V84.625H68.3789ZM74.4258 84.625V88H76.8164V84.625H74.4258ZM71.3789 84.625V88H73.8164V84.625H71.3789ZM76.8164 80.6875H74.4258V84.0156H76.8164V80.6875ZM68.3789 80.6875V84.0156H70.7695V80.6875H68.3789ZM71.3789 80.6875V84.0156H73.8164V80.6875H71.3789ZM81.9727 84.3438H85.8164V79.5625H82.4883V78.9531H89.6602V79.5625H86.4727V84.3438H90.3164V84.9062H86.4727V89.3594H85.8164V84.9062H81.9727V84.3438ZM80.9883 82.2344V87.8125L82.7695 86.5469C82.7695 86.7656 82.8164 86.9844 82.9102 87.2031C82.1289 87.7031 81.4883 88.125 80.9883 88.4688C80.9258 88.5312 80.832 88.6094 80.707 88.7031C80.6133 88.8281 80.5352 88.9062 80.4727 88.9375L80.0039 88.375C80.2539 88.125 80.3789 87.7812 80.3789 87.3438V82.7969H78.9258V82.2344H80.9883ZM88.207 83.3125L87.6445 82.9375C88.207 82.2188 88.707 81.4531 89.1445 80.6406L89.7539 80.9688C89.5352 81.3125 89.2227 81.7812 88.8164 82.375C88.5352 82.7812 88.332 83.0938 88.207 83.3125ZM82.6289 80.9688L83.1445 80.6406C83.7383 81.5469 84.207 82.2969 84.5508 82.8906L83.9883 83.2656C83.7383 82.8281 83.3945 82.2344 82.957 81.4844C82.8008 81.2656 82.6914 81.0938 82.6289 80.9688ZM81.1758 80.7344C80.9258 80.4219 80.4883 79.9375 79.8633 79.2812C79.6758 79.0938 79.5508 78.9531 79.4883 78.8594L79.957 78.4844C80.8008 79.3281 81.3789 79.9375 81.6914 80.3125L81.1758 80.7344ZM90.8789 83.9219C92.0352 82.0781 92.8789 80.1719 93.4102 78.2031L94.0664 78.3906C93.7852 79.2969 93.4727 80.1562 93.1289 80.9688V89.3594H92.4727V82.375C92.0977 83.1562 91.6914 83.8906 91.2539 84.5781C91.2227 84.5156 91.1758 84.4219 91.1133 84.2969C91.0195 84.1094 90.9414 83.9844 90.8789 83.9219ZM101.895 82.7969C100.238 81.7656 98.9883 80.5781 98.1445 79.2344C97.2695 80.6094 96.0195 81.8438 94.3945 82.9375C94.3633 82.875 94.2852 82.7812 94.1602 82.6562C94.0664 82.5312 93.9883 82.4531 93.9258 82.4219C95.8945 81.2031 97.2852 79.7656 98.0977 78.1094L98.8008 78.2031C98.7695 78.2344 98.7383 78.2969 98.707 78.3906C98.6133 78.5156 98.5352 78.625 98.4727 78.7188C99.4414 80.1875 100.723 81.3594 102.316 82.2344C102.129 82.4219 101.988 82.6094 101.895 82.7969ZM96.6914 82.7969V84.25C96.7852 86.5625 96.1445 88.2812 94.7695 89.4062C94.5508 89.1875 94.3633 89.0312 94.207 88.9375C95.5195 88 96.1289 86.4219 96.0352 84.2031V82.7969H96.6914ZM99.4102 82.7969H100.066V89.2656H99.4102V82.7969Z" fill="#48C590"/>
<path d="M240.285 343.375V347.875C240.285 349.344 240.191 350.422 240.004 351.109C239.816 351.797 239.41 352.531 238.785 353.312C238.66 353.156 238.488 353.016 238.27 352.891C238.863 352.203 239.238 351.531 239.395 350.875C239.582 350.25 239.676 349.266 239.676 347.922V342.812H246.707V352C246.738 352.781 246.332 353.188 245.488 353.219C245.113 353.219 244.613 353.219 243.988 353.219C243.988 353.156 243.957 353.047 243.895 352.891C243.863 352.766 243.832 352.656 243.801 352.562C244.363 352.594 244.863 352.609 245.301 352.609C245.863 352.641 246.129 352.406 246.098 351.906V343.375H240.285ZM241.41 348.578H244.879V351.391H241.41V348.578ZM242.91 343.844H243.52V344.969H245.16V345.531H243.52V346.797H245.535V347.359H240.848V346.797H242.91V345.531H241.223V344.969H242.91V343.844ZM237.801 350.781C237.957 350.625 238.176 350.344 238.457 349.938C238.613 349.75 238.723 349.609 238.785 349.516C238.879 349.734 238.973 349.938 239.066 350.125C238.66 350.625 238.223 351.156 237.754 351.719C237.723 351.75 237.676 351.797 237.613 351.859C237.551 351.922 237.473 352.031 237.379 352.188L236.863 351.953C237.082 351.641 237.191 351.312 237.191 350.969V346.328H235.926V345.766H237.801V350.781ZM241.973 349.094V350.828H244.27V349.094H241.973ZM238.129 344.547C237.754 344.016 237.238 343.391 236.582 342.672L237.051 342.297C237.207 342.453 237.441 342.719 237.754 343.094C238.191 343.562 238.504 343.891 238.691 344.078L238.129 344.547ZM249.426 347.828H257.676V353.312H257.02V352.609H250.082V353.359H249.426V347.828ZM250.082 348.391V350.031H257.02V348.391H250.082ZM250.082 350.547V352.047H257.02V350.547H250.082ZM250.738 344.734L251.254 344.406C251.41 344.562 251.613 344.797 251.863 345.109C252.051 345.328 252.191 345.5 252.285 345.625L251.77 345.953H254.816C255.191 345.422 255.551 344.891 255.895 344.359L256.504 344.734C256.473 344.766 256.426 344.828 256.363 344.922C256.02 345.359 255.738 345.703 255.52 345.953H259.176V346.562H247.973V345.953H251.723C251.41 345.516 251.082 345.109 250.738 344.734ZM252.941 342.297L253.551 342.062C253.645 342.188 253.77 342.391 253.926 342.672C254.082 342.922 254.191 343.125 254.254 343.281L253.738 343.516H258.613V344.078H248.582V343.516H253.598C253.504 343.297 253.348 343 253.129 342.625C253.035 342.469 252.973 342.359 252.941 342.297Z" fill="white"/>
<path d="M128.504 244.859L131.035 243.406H125.223V242.797H131.832V243.547L129.16 245.141V245.609H134.223V246.219H129.16V247.953C129.191 248.859 128.738 249.312 127.801 249.312C127.332 249.312 126.816 249.312 126.254 249.312C126.254 249.25 126.238 249.172 126.207 249.078C126.176 248.859 126.145 248.688 126.113 248.562C126.582 248.594 127.082 248.609 127.613 248.609C128.27 248.672 128.566 248.406 128.504 247.812V246.219H122.973V245.609H128.504V244.859ZM123.395 240.734H133.848V242.938H133.191V241.344H124.051V242.938H123.395V240.734ZM131.223 240.594L130.66 240.172C131.254 239.578 131.785 238.969 132.254 238.344L132.816 238.766C132.66 238.953 132.41 239.234 132.066 239.609C131.691 240.047 131.41 240.375 131.223 240.594ZM127.52 238.438L128.082 238.156C128.52 238.719 128.941 239.328 129.348 239.984L128.738 240.312C128.332 239.625 127.926 239 127.52 238.438ZM124.332 238.766L124.848 238.438C125.41 239.062 125.863 239.609 126.207 240.078L125.645 240.5C125.332 240.031 124.895 239.453 124.332 238.766ZM135.676 239.188H145.191C145.191 239.438 145.191 239.812 145.191 240.312C145.129 243.062 145.066 245.109 145.004 246.453C145.004 248.203 144.145 249.047 142.426 248.984C141.926 249.016 141.238 249.031 140.363 249.031C140.332 248.75 140.27 248.484 140.176 248.234C140.707 248.266 141.426 248.281 142.332 248.281C143.738 248.375 144.395 247.719 144.301 246.312C144.426 243.812 144.488 241.641 144.488 239.797H135.676V239.188ZM135.723 247.297L135.441 246.547C138.441 245.609 141.035 244.75 143.223 243.969C143.223 244.25 143.254 244.516 143.316 244.766C140.379 245.703 137.848 246.547 135.723 247.297ZM136.895 241.672L137.27 241.109C138.957 241.859 140.223 242.469 141.066 242.938L140.691 243.547C139.285 242.766 138.02 242.141 136.895 241.672Z" fill="white"/>
<path d="M355.707 242.75H363.535V247.156H355.707V242.75ZM364.848 242.984C362.629 242.234 360.973 241.312 359.879 240.219V242.375H359.27V240.219C358.176 241.344 356.52 242.312 354.301 243.125C354.27 243.062 354.223 242.969 354.16 242.844C354.066 242.719 354.004 242.625 353.973 242.562C355.91 241.938 357.535 241.078 358.848 239.984H354.301V239.422H359.27V238.156H359.879V239.422H364.941V239.984H360.301C361.613 241.078 363.254 241.875 365.223 242.375C365.16 242.469 365.066 242.609 364.941 242.797C364.91 242.891 364.879 242.953 364.848 242.984ZM356.316 243.312V244.719H362.926V243.312H356.316ZM356.316 245.234V246.641H362.926V245.234H356.316ZM354.02 248.328H365.176V248.938H354.02V248.328ZM370.004 244.531H376.004V249.359H375.348V248.797H370.66V249.359H370.004V244.531ZM369.254 239.656H371.598C371.473 239.469 371.207 239.156 370.801 238.719C370.707 238.594 370.629 238.5 370.566 238.438L371.035 238.109C371.16 238.234 371.348 238.438 371.598 238.719C371.848 239 372.035 239.203 372.16 239.328L371.738 239.656H373.754C373.816 239.562 373.926 239.422 374.082 239.234C374.488 238.766 374.785 238.391 374.973 238.109L375.488 238.438C375.395 238.562 375.207 238.797 374.926 239.141C374.738 239.359 374.598 239.531 374.504 239.656H376.848V240.172H374.363V242.891H377.27V243.406H368.785V242.891H371.691V240.172H369.254V239.656ZM370.66 246.969V248.281H375.348V246.969H370.66ZM370.66 245.094V246.453H375.348V245.094H370.66ZM367.848 247.812C367.91 247.75 368.051 247.625 368.27 247.438C368.676 247.031 368.957 246.75 369.113 246.594C369.113 246.688 369.145 246.812 369.207 246.969C369.238 247.125 369.254 247.234 369.254 247.297C368.379 248.016 367.738 248.594 367.332 249.031L366.863 248.422C367.145 248.203 367.27 247.875 367.238 247.438V242.797H365.926V242.234H367.848V247.812ZM372.254 240.172V242.891H373.754V240.172H372.254ZM367.895 240.453C367.395 239.828 366.926 239.281 366.488 238.812L366.957 238.438C367.207 238.688 367.629 239.156 368.223 239.844C368.316 239.938 368.379 240 368.41 240.031L367.895 240.453ZM369.301 240.969L369.77 240.688C370.207 241.094 370.629 241.516 371.035 241.953L370.52 242.328C370.488 242.297 370.426 242.219 370.332 242.094C369.832 241.531 369.488 241.156 369.301 240.969ZM375.02 241.953C375.457 241.547 375.879 241.125 376.285 240.688L376.754 241.016C376.316 241.516 375.91 241.953 375.535 242.328L375.02 241.953Z" fill="white"/>
<circle cx="247.598" cy="103" r="7" fill="#48C590"/>
<circle cx="993.598" cy="128" r="10" fill="#48C590"/>
<circle cx="993.598" cy="296" r="10" fill="#48C590"/>
<circle cx="247.598" cy="326" r="7" fill="#48C590"/>
<ellipse cx="135.098" cy="215" rx="7.5" ry="7" fill="#48C590"/>
<circle cx="365.598" cy="215" r="7" fill="#48C590"/>
<path d="M432.515 214.665C432.515 317.277 349.331 400.461 246.719 400.461C144.106 400.461 60.9219 317.277 60.9219 214.665C60.9219 112.052 144.106 28.8679 246.719 28.8679C349.331 28.8679 432.515 112.052 432.515 214.665Z" stroke="#48C590"/>
<circle cx="433.015" cy="214.665" r="4.15311" transform="rotate(90 433.015 214.665)" fill="#48C590"/>
<circle cx="378.45" cy="346.396" r="4.15311" transform="rotate(135 378.45 346.396)" fill="#48C590"/>
<circle cx="245.984" cy="400.96" r="4.15311" transform="rotate(-179.779 245.984 400.96)" fill="#48C590"/>
<circle cx="114.479" cy="345.887" r="4.15311" transform="rotate(-134.792 114.479 345.887)" fill="#48C590"/>
<circle cx="60.4272" cy="213.196" r="4.15311" transform="rotate(-89.5577 60.4272 213.196)" fill="#48C590"/>
<circle cx="115.899" cy="82.0271" r="4.15311" transform="rotate(-44.5837 115.899 82.0271)" fill="#48C590"/>
<circle cx="248.917" cy="28.3806" r="4.15311" transform="rotate(0.663504 248.917 28.3806)" fill="#48C590"/>
<circle cx="379.808" cy="84.3047" r="4.15311" transform="rotate(45.6245 379.808 84.3047)" fill="#48C590"/>
<line x1="509.598" y1="214.5" x2="828.598" y2="214.5" stroke="#48C590"/>
<path d="M852.598 146C859.983 132.082 869.448 119.208 880.794 107.863C910.8 77.8571 951.496 61 993.931 61C1036.37 61 1077.06 77.8571 1107.07 107.863C1118.41 119.208 1127.88 132.082 1135.26 146" stroke="#48C590"/>
<path d="M852.598 294C859.983 307.918 869.448 320.792 880.794 332.137C910.8 362.143 951.496 379 993.931 379C1036.37 379 1077.06 362.143 1107.07 332.137C1118.41 320.792 1127.88 307.918 1135.26 294" stroke="#48C590"/>
</svg>
